<svg width="1440" height="900" viewBox="0 0 1440 900" fill="none" xmlns="http://www.w3.org/2000/svg">
    <g clip-path="url(#clip0_1_15343)">
        <rect width="1440" height="900" fill="#1D2633"/>
        <g clip-path="url(#clip1_1_15343)">
            <g filter="url(#filter0_dd_1_15343)">
                <path fill-rule="evenodd" clip-rule="evenodd" d="M1440 615.601H1405.89C1369.99 615.601 1345.31 651.347 1345.31 674.805V720.604C1345.31 730.474 1337.28 738.477 1327.37 738.477H1275.76C1245.47 738.477 1224.16 775.339 1224.16 795.446V841.245C1224.16 851.116 1216.12 859.118 1206.21 859.118H1154.61C1153.77 859.118 1152.94 859.06 1152.13 858.948C1133.98 858.72 1116.21 880.291 1107.09 900H933.782C937.888 895.474 943.829 892.63 950.436 892.63H1071.59C1110.86 892.63 1136.66 855.767 1136.66 840.128V787.627C1136.66 777.757 1144.69 769.754 1154.61 769.754H1201.72C1234.26 769.754 1256.69 737.36 1257.81 716.136V666.985C1257.81 657.115 1265.85 649.113 1275.76 649.113H1325.12C1358.78 649.113 1381.21 608.899 1381.21 589.909V463.682C1381.21 451.343 1391.26 441.341 1403.65 441.341H1440V615.601Z" fill="url(#paint0_linear_1_15343)"/>
            </g>
        </g>
        <g clip-path="url(#clip2_1_15343)">
            <path fill-rule="evenodd" clip-rule="evenodd" d="M320.534 0V12.1961C320.534 27.8324 294.75 64.6894 255.496 64.6894H134.389C122.002 64.6894 111.962 74.69 111.962 87.0271V216.585C111.962 216.701 111.963 216.817 111.964 216.932L111.962 216.93C110.865 237.692 88.5576 269.382 56.7442 269.382H10.6694C6.6559 269.382 2.9569 270.724 0 272.982V358C2.71966 357.085 5.47894 356.601 8.24718 356.635C9.03922 356.744 9.84883 356.801 10.6694 356.801H61.1322C70.8255 356.801 78.6845 348.973 78.6845 339.318V294.515C78.6845 274.845 103.835 238.923 133.455 238.923L133.435 238.903C133.751 238.916 134.07 238.923 134.389 238.923H262.224C274.61 238.923 284.651 228.922 284.651 216.585V94.8451C284.651 75.3578 309.937 30.6849 336 31.0133C336.809 31.1249 337.637 31.183 338.476 31.183H390.058C399.967 31.183 408 23.1817 408 13.3129V0H320.534Z" fill="url(#paint1_linear_1_15343)"/>
            <path fill-rule="evenodd" clip-rule="evenodd" d="M215.942 207.362C214.792 207.079 213.8 206.835 213.8 205.998C213.8 204.876 215.122 204.755 215.691 204.755C216.479 204.755 216.927 204.868 217.514 205.147C217.799 204.928 219.099 203.928 219.099 203.928C218.242 203.358 216.956 202.913 215.705 202.913C212.723 202.913 211.66 204.568 211.66 206.117C211.66 208.348 213.518 208.813 215.158 209.222C216.31 209.51 217.304 209.759 217.304 210.609C217.304 211.045 217.055 211.777 215.386 211.777C214.277 211.777 213.064 211.371 212.201 210.715L211.477 212.445C212.355 213.16 213.878 213.62 215.372 213.62C217.845 213.62 219.444 212.368 219.444 210.43C219.444 208.224 217.584 207.766 215.942 207.362Z" fill="#161D27"/>
            <path fill-rule="evenodd" clip-rule="evenodd" d="M226.245 211.72H223.577V209.071H226.245C227.464 209.071 228.081 209.512 228.081 210.396C228.081 211.282 227.481 211.72 226.245 211.72ZM223.577 207.348H225.857H223.577ZM223.577 204.817H225.857C227.294 204.817 227.596 205.509 227.596 206.083C227.596 206.915 226.994 207.348 225.857 207.348H223.577V204.817ZM228.505 208.106L228.402 208.071L228.498 208.017C229.314 207.555 229.763 206.754 229.763 205.762C229.763 204.091 228.406 203.094 226.134 203.094H221.438V213.443H226.412C228.886 213.443 230.248 212.448 230.248 210.642C230.248 209.412 229.613 208.488 228.505 208.106Z" fill="#161D27"/>
            <path fill-rule="evenodd" clip-rule="evenodd" d="M237.491 204.813L239.731 203.09H232.234V213.439H239.731V211.716H234.374V209.067H238.943V207.344H234.374V204.813H237.491Z" fill="#161D27"/>
            <path fill-rule="evenodd" clip-rule="evenodd" d="M243.864 204.817H245.76C247.131 204.817 247.886 205.522 247.886 206.802C247.886 208.083 247.131 208.788 245.76 208.788H243.864V204.817ZM250.181 213.443L248.003 210.081C249.288 209.496 250.029 208.343 250.029 206.798C250.029 204.513 248.411 203.094 245.806 203.094H241.725V213.443H243.864V210.511H245.806C245.867 210.511 245.927 210.51 245.987 210.508L247.888 213.443H250.181Z" fill="#161D27"/>
            <path fill-rule="evenodd" clip-rule="evenodd" d="M206.706 208.267C206.706 207.741 206.66 207.226 206.574 206.726L204.801 208.09C204.802 208.149 204.803 208.208 204.803 208.267C204.803 211.913 201.961 214.88 198.467 214.88C194.974 214.88 192.132 211.913 192.132 208.267C192.132 204.62 194.974 201.654 198.467 201.654C199.791 201.654 201.021 202.08 202.039 202.808L203.642 201.575C202.227 200.382 200.427 199.667 198.467 199.667C193.917 199.667 190.229 203.517 190.229 208.267C190.229 213.016 193.917 216.866 198.467 216.866C203.017 216.866 206.706 213.016 206.706 208.267Z" fill="#161D27"/>
            <path fill-rule="evenodd" clip-rule="evenodd" d="M204.982 203.01C205.371 203.535 205.704 204.108 205.969 204.719L198.463 210.494L195.326 208.442V205.973L198.463 208.025L204.982 203.01Z" fill="#161D27"/>
            <path fill-rule="evenodd" clip-rule="evenodd" d="M233.815 118.218C233.185 117.559 232.831 116.667 232.831 115.736V104.332C232.831 102.565 231.459 101.133 229.766 101.133H219.812C218.119 101.133 216.747 102.565 216.747 104.332V114.723C216.747 116.489 218.119 117.921 219.812 117.921H230.732C231.624 117.921 232.479 118.291 233.11 118.949L233.112 118.952C233.743 119.61 234.097 120.502 234.097 121.433V187.157C234.097 188.923 235.469 190.355 237.161 190.355H247.116C248.809 190.355 250.18 188.923 250.18 187.157V122.444C250.18 120.677 248.809 119.245 247.116 119.245H236.193C235.301 119.245 234.446 118.876 233.815 118.218Z" fill="#161D27"/>
            <path fill-rule="evenodd" clip-rule="evenodd" d="M159.021 155.181L159.033 155.167C159.664 154.513 160.516 154.146 161.405 154.146H188.425C190.109 154.146 191.475 152.72 191.475 150.961V139.526C191.475 138.604 191.827 137.719 192.454 137.067L192.466 137.055C193.096 136.401 193.949 136.033 194.838 136.033H205.775C207.459 136.033 208.825 134.608 208.825 132.849V122.429C208.825 120.671 207.459 119.245 205.775 119.245H194.837C193.945 119.245 193.09 118.875 192.46 118.218C191.829 117.559 191.475 116.667 191.475 115.736V104.317C191.475 102.559 190.109 101.133 188.425 101.133H145.059C143.347 101.133 141.958 102.582 141.958 104.37V114.684C141.958 116.472 143.347 117.921 145.059 117.921H189.375C190.268 117.921 191.124 118.291 191.755 118.95C192.387 119.609 192.742 120.503 192.742 121.435V133.855C192.742 134.782 192.388 135.672 191.757 136.327L191.749 136.336C191.119 136.99 190.266 137.358 189.378 137.358H162.358C160.674 137.358 159.308 138.783 159.308 140.542V151.968C159.308 152.893 158.955 153.781 158.329 154.435L158.318 154.446C157.691 155.101 156.841 155.469 155.954 155.469H145.009C143.324 155.469 141.958 156.894 141.958 158.653V169.073C141.958 170.831 143.323 172.256 145.009 172.256H155.965C156.852 172.256 157.702 172.624 158.329 173.279C158.956 173.933 159.308 174.82 159.308 175.745V187.171C159.308 188.929 160.674 190.354 162.358 190.355H205.724C207.437 190.355 208.825 188.906 208.825 187.118V176.804C208.825 175.016 207.437 173.567 205.724 173.567L161.405 173.566C160.516 173.566 159.663 173.199 159.033 172.545L159.021 172.533C158.394 171.882 158.042 170.997 158.042 170.075V157.639C158.042 156.716 158.394 155.832 159.021 155.181Z" fill="#161D27"/>
            <path fill-rule="evenodd" clip-rule="evenodd" d="M243.784 150.087L243.744 150.046C243.685 149.984 243.651 149.9 243.651 149.812V148.597C243.651 148.415 243.509 148.267 243.335 148.267H240.486C240.403 148.267 240.322 148.232 240.263 148.17L240.242 148.148C240.182 148.086 240.149 148.002 240.149 147.914V144.933C240.149 144.75 240.007 144.602 239.833 144.602H238.78C238.606 144.602 238.464 144.75 238.464 144.933V153.618C238.464 153.801 238.606 153.949 238.78 153.949H239.833C240.007 153.949 240.149 153.801 240.149 153.618V148.205L240.189 148.247C240.248 148.309 240.281 148.393 240.281 148.48V149.695C240.281 149.878 240.423 150.026 240.598 150.026H243.446C243.53 150.026 243.611 150.061 243.67 150.122L243.691 150.144C243.75 150.206 243.784 150.29 243.784 150.378V153.618C243.784 153.801 243.926 153.949 244.1 153.949H245.152C245.327 153.949 245.469 153.801 245.469 153.618V144.933C245.469 144.75 245.327 144.602 245.152 144.602H244.1C243.926 144.602 243.784 144.75 243.784 144.933V150.087Z" fill="white"/>
            <path fill-rule="evenodd" clip-rule="evenodd" d="M243.689 140.966L243.673 140.982C243.612 141.046 243.529 141.082 243.443 141.082H241.966H240.489C240.404 141.082 240.321 141.046 240.26 140.982L240.244 140.966C240.183 140.902 240.149 140.816 240.149 140.726V135.608C240.149 135.518 240.183 135.432 240.244 135.369L240.26 135.352C240.321 135.288 240.404 135.252 240.49 135.252H243.442C243.529 135.252 243.611 135.288 243.672 135.352L243.688 135.369C243.749 135.432 243.784 135.518 243.784 135.608V136.811C243.784 136.998 243.929 137.149 244.109 137.149H245.144C245.323 137.149 245.469 136.998 245.469 136.811V135.73C245.469 135.543 245.323 135.391 245.144 135.391H243.992C243.906 135.391 243.823 135.356 243.762 135.292L243.746 135.275C243.685 135.212 243.651 135.125 243.651 135.035V133.833C243.651 133.646 243.506 133.494 243.326 133.494H240.606C240.427 133.494 240.281 133.646 240.281 133.833V135.035C240.281 135.125 240.247 135.211 240.186 135.275L240.17 135.292C240.109 135.356 240.027 135.391 239.94 135.391H238.789C238.609 135.391 238.464 135.543 238.464 135.73V140.604C238.464 140.791 238.609 140.943 238.789 140.943H239.94C240.027 140.943 240.109 140.979 240.17 141.042L240.186 141.059C240.247 141.123 240.281 141.209 240.281 141.299V142.501C240.281 142.688 240.427 142.841 240.606 142.841H242.46H243.326C243.506 142.841 243.651 142.688 243.651 142.501V141.299C243.651 141.209 243.685 141.123 243.746 141.059L243.761 141.044C243.822 140.98 243.905 140.944 243.991 140.944H245.144C245.323 140.944 245.469 140.793 245.469 140.605V139.525C245.469 139.338 245.323 139.185 245.144 139.185H244.109C243.929 139.185 243.784 139.338 243.784 139.525V140.726C243.784 140.816 243.75 140.902 243.689 140.966Z" fill="white"/>
            <path fill-rule="evenodd" clip-rule="evenodd" d="M243.672 157.564L243.689 157.581C243.75 157.645 243.784 157.731 243.784 157.821V162.938C243.784 163.029 243.75 163.115 243.689 163.178L243.673 163.195C243.612 163.258 243.53 163.294 243.443 163.294H240.49C240.404 163.294 240.321 163.259 240.26 163.195L240.244 163.178C240.183 163.114 240.149 163.029 240.149 162.938V157.821C240.149 157.731 240.183 157.645 240.244 157.581L240.26 157.564C240.321 157.5 240.404 157.465 240.49 157.465H243.443C243.529 157.465 243.611 157.5 243.672 157.564ZM243.651 157.248V156.045C243.651 155.858 243.506 155.706 243.326 155.706H240.606C240.427 155.706 240.282 155.858 240.282 156.045V157.248C240.282 157.337 240.247 157.424 240.186 157.488L240.171 157.504C240.11 157.568 240.027 157.603 239.941 157.603H238.789C238.61 157.603 238.464 157.755 238.464 157.943V162.817C238.464 163.004 238.61 163.156 238.789 163.156H239.94C240.027 163.156 240.109 163.191 240.17 163.255L240.186 163.272C240.247 163.335 240.282 163.422 240.282 163.512V164.714C240.282 164.901 240.427 165.053 240.606 165.053H243.326C243.506 165.053 243.651 164.901 243.651 164.714V163.512C243.651 163.422 243.686 163.335 243.747 163.272L243.761 163.256C243.822 163.192 243.905 163.157 243.991 163.157H245.144C245.323 163.157 245.469 163.005 245.469 162.818V157.943C245.469 157.755 245.323 157.603 245.144 157.603H243.992C243.906 157.603 243.823 157.568 243.762 157.504L243.747 157.488C243.686 157.424 243.651 157.338 243.651 157.248Z" fill="white"/>
            <path fill-rule="evenodd" clip-rule="evenodd" d="M243.672 168.673L243.689 168.69C243.75 168.753 243.784 168.839 243.784 168.93V174.047C243.784 174.137 243.75 174.223 243.689 174.287L243.673 174.303C243.612 174.367 243.53 174.403 243.443 174.403H240.49C240.404 174.403 240.321 174.367 240.26 174.303L240.244 174.286C240.183 174.223 240.149 174.137 240.149 174.047V168.93C240.149 168.839 240.183 168.753 240.244 168.69L240.26 168.673C240.321 168.609 240.404 168.573 240.49 168.573H243.443C243.529 168.573 243.611 168.609 243.672 168.673ZM243.651 168.357V167.154C243.651 166.967 243.506 166.815 243.326 166.815H240.606C240.427 166.815 240.282 166.967 240.282 167.154V168.356C240.282 168.446 240.247 168.532 240.186 168.596L240.171 168.613C240.11 168.677 240.027 168.712 239.941 168.712H238.789C238.61 168.712 238.464 168.864 238.464 169.051V173.925C238.464 174.112 238.61 174.264 238.789 174.264H239.94C240.027 174.264 240.109 174.3 240.17 174.363L240.186 174.38C240.247 174.444 240.282 174.53 240.282 174.62V175.822C240.282 176.009 240.427 176.162 240.606 176.162L243.326 176.161C243.506 176.161 243.651 176.009 243.651 175.822V174.62C243.651 174.53 243.686 174.444 243.747 174.38L243.761 174.365C243.822 174.301 243.905 174.266 243.991 174.266H245.144C245.323 174.266 245.469 174.114 245.469 173.926V169.051C245.469 168.864 245.323 168.712 245.144 168.712H243.992C243.906 168.712 243.823 168.677 243.762 168.613L243.747 168.596C243.686 168.533 243.651 168.446 243.651 168.357Z" fill="white"/>
            <path fill-rule="evenodd" clip-rule="evenodd" d="M240.281 122.732V123.935C240.281 124.025 240.247 124.111 240.186 124.174L240.17 124.191C240.109 124.255 240.027 124.291 239.941 124.291H238.789C238.609 124.291 238.464 124.442 238.464 124.63V125.71C238.464 125.897 238.609 126.049 238.789 126.049H239.941C240.027 126.049 240.109 126.085 240.17 126.148L240.186 126.165C240.247 126.229 240.281 126.315 240.281 126.405V127.607C240.281 127.795 240.427 127.947 240.606 127.947H243.443C243.529 127.947 243.611 127.982 243.672 128.046L243.689 128.063C243.75 128.126 243.784 128.212 243.784 128.302V129.625C243.784 129.715 243.75 129.801 243.689 129.865L243.672 129.882C243.612 129.945 243.529 129.981 243.443 129.981H238.789C238.609 129.981 238.464 130.133 238.464 130.32V131.401C238.464 131.588 238.609 131.74 238.789 131.74H243.326C243.506 131.74 243.651 131.588 243.651 131.401V130.198C243.651 130.108 243.686 130.022 243.746 129.959L243.761 129.943C243.822 129.879 243.905 129.844 243.991 129.844H245.144C245.324 129.844 245.469 129.692 245.469 129.504V128.424C245.469 128.237 245.324 128.085 245.144 128.085H243.992C243.906 128.085 243.823 128.049 243.762 127.986L243.746 127.969C243.686 127.905 243.651 127.819 243.651 127.729V126.527C243.651 126.34 243.506 126.188 243.326 126.188H240.49C240.404 126.188 240.321 126.152 240.26 126.088L240.244 126.071C240.183 126.008 240.149 125.922 240.149 125.832V124.508C240.149 124.418 240.183 124.332 240.244 124.268L240.26 124.251C240.321 124.188 240.404 124.152 240.49 124.152H245.144C245.324 124.152 245.469 124 245.469 123.813V122.732C245.469 122.545 245.324 122.393 245.144 122.393H240.606C240.427 122.393 240.281 122.545 240.281 122.732Z" fill="white"/>
            <path fill-rule="evenodd" clip-rule="evenodd" d="M240.26 185.408L240.244 185.391C240.183 185.327 240.149 185.241 240.149 185.151V178.258C240.149 178.071 240.003 177.919 239.824 177.919H238.789C238.609 177.919 238.464 178.071 238.464 178.258V185.029C238.464 185.216 238.609 185.368 238.789 185.368H239.94C240.027 185.368 240.109 185.404 240.17 185.467L240.186 185.484C240.247 185.548 240.281 185.634 240.281 185.724V186.927C240.281 187.114 240.427 187.266 240.606 187.266H245.143C245.323 187.266 245.469 187.114 245.469 186.927V185.846C245.469 185.659 245.323 185.507 245.143 185.507H240.49C240.403 185.507 240.321 185.471 240.26 185.408Z" fill="white"/>
        </g>
        <path fill-rule="evenodd" clip-rule="evenodd" d="M720 439.5C714.201 439.5 709.5 444.201 709.5 450C709.5 455.799 714.201 460.5 720 460.5C720.828 460.5 721.5 461.172 721.5 462C721.5 462.828 720.828 463.5 720 463.5C712.544 463.5 706.5 457.456 706.5 450C706.5 442.544 712.544 436.5 720 436.5C727.456 436.5 733.5 442.544 733.5 450C733.5 450.828 732.828 451.5 732 451.5C731.172 451.5 730.5 450.828 730.5 450C730.5 444.201 725.799 439.5 720 439.5Z" fill="#44EB99"/>
    </g>
    <defs>
        <filter id="filter0_dd_1_15343" x="913.782" y="413.341" width="546.218" height="518.659" filterUnits="userSpaceOnUse" color-interpolation-filters="sRGB">
            <feFlood flood-opacity="0" result="BackgroundImageFix"/>
            <feColorMatrix in="SourceAlpha" type="matrix" values="0 0 0 0 0 0 0 0 0 0 0 0 0 0 0 0 0 0 127 0" result="hardAlpha"/>
            <feOffset dy="12"/>
            <feGaussianBlur stdDeviation="10"/>
            <feColorMatrix type="matrix" values="0 0 0 0 0.0862745 0 0 0 0 0.113725 0 0 0 0 0.152941 0 0 0 0.15 0"/>
            <feBlend mode="normal" in2="BackgroundImageFix" result="effect1_dropShadow_1_15343"/>
            <feColorMatrix in="SourceAlpha" type="matrix" values="0 0 0 0 0 0 0 0 0 0 0 0 0 0 0 0 0 0 127 0" result="hardAlpha"/>
            <feOffset dy="-8"/>
            <feGaussianBlur stdDeviation="10"/>
            <feColorMatrix type="matrix" values="0 0 0 0 0.0862745 0 0 0 0 0.113725 0 0 0 0 0.152941 0 0 0 0.12 0"/>
            <feBlend mode="normal" in2="effect1_dropShadow_1_15343" result="effect2_dropShadow_1_15343"/>
            <feBlend mode="normal" in="SourceGraphic" in2="effect2_dropShadow_1_15343" result="shape"/>
        </filter>
        <linearGradient id="paint0_linear_1_15343" x1="1432" y1="555.532" x2="929.778" y2="1076.47" gradientUnits="userSpaceOnUse">
            <stop stop-color="#861BE3"/>
            <stop offset="1" stop-color="#00FFC1"/>
        </linearGradient>
        <linearGradient id="paint1_linear_1_15343" x1="-46.484" y1="470.848" x2="756.757" y2="-397.858" gradientUnits="userSpaceOnUse">
            <stop stop-color="#05F8C3"/>
            <stop offset="1" stop-color="#605DDA"/>
        </linearGradient>
        <clipPath id="clip0_1_15343">
            <rect width="1440" height="900" fill="white"/>
        </clipPath>
        <clipPath id="clip1_1_15343">
            <rect width="532" height="509" fill="white" transform="translate(908 391)"/>
        </clipPath>
        <clipPath id="clip2_1_15343">
            <rect width="408" height="358" fill="white"/>
        </clipPath>
    </defs>
</svg>
